<svg width="1080" height="1080" viewBox="0 0 1080 1080" fill="none" xmlns="http://www.w3.org/2000/svg">
<path d="M540 439.515L412.727 508.382V582.545H449.495V529.571L540 480.727L590 508.382L503.333 557.383L538.788 577.248L667.273 508.382L540 439.515Z" fill="#606062"/>
<path d="M449.495 609.212H412.727V679.403L540 749.818L667.273 679.515L630.909 656.889L540 706.182L449.495 656.889V609.212Z" fill="#606062"/>
<path d="M376.364 582.545H340V464.97L541.212 354.667L703.636 443.152V267.394L740 248V582.545H702.424V484.364L541.212 395.879L376.364 486.788V582.545Z" fill="#81CAA8"/>
<path d="M376.364 609.212H340V721.939L541.212 831.03L740 721.939V609.212H703.636V701.333L538.788 789.818L376.364 700.121V609.212Z" fill="#81CAA8"/>
</svg>
